<svg width="17" height="17" viewBox="0 0 17 17" fill="none" xmlns="http://www.w3.org/2000/svg">
<path d="M6.28 10.9237C3.75 10.9237 1.7 8.87372 1.7 6.34372C1.7 3.82372 3.75 1.76372 6.28 1.76372C8.8 1.76372 10.86 3.81372 10.86 6.34372C10.86 8.86372 8.8 10.9237 6.28 10.9237ZM16.79 15.1237L11.5 9.83372C12.19 8.81372 12.56 7.60372 12.56 6.34372C12.56 4.66372 11.91 3.09372 10.72 1.90372C9.53 0.713721 7.96 0.0637207 6.28 0.0637207C4.6 0.0637207 3.03 0.713721 1.84 1.90372C0.65 3.08372 0 4.66372 0 6.34372C0 8.02372 0.65 9.59372 1.84 10.7837C3.03 11.9737 4.6 12.6237 6.28 12.6237C7.55 12.6237 8.77 12.2437 9.8 11.5437L15.08 16.8237C15.26 17.0037 15.59 16.9637 15.81 16.7337L16.7 15.8437C16.93 15.6237 16.97 15.3037 16.79 15.1237Z" fill="currentColor"/>
</svg>
